<svg xmlns="http://www.w3.org/2000/svg" viewBox="0 0 320 180" width="320" height="180">
  <defs>
    <linearGradient id="sky" x1="0" y1="0" x2="0" y2="1">
      <stop offset="0" stop-color="#1e1b4b"/>
      <stop offset="0.55" stop-color="#7c3aed"/>
      <stop offset="1" stop-color="#f472b6"/>
    </linearGradient>
    <radialGradient id="sun" cx="0.5" cy="0.5" r="0.5">
      <stop offset="0" stop-color="#fde68a"/>
      <stop offset="1" stop-color="#fb923c"/>
    </radialGradient>
  </defs>
  <rect width="320" height="180" fill="url(#sky)"/>
  <g fill="#fff" opacity="0.8">
    <circle cx="40" cy="24" r="1"/><circle cx="92" cy="14" r="1.2"/><circle cx="150" cy="30" r="0.8"/>
    <circle cx="228" cy="18" r="1"/><circle cx="280" cy="36" r="1.3"/><circle cx="196" cy="44" r="0.8"/>
  </g>
  <circle cx="160" cy="118" r="34" fill="url(#sun)"/>
  <path d="M0 132 L48 96 L86 124 L132 84 L176 126 L220 92 L268 128 L320 100 V180 H0Z" fill="#312e81"/>
  <path d="M0 150 L60 122 L110 146 L170 116 L230 148 L290 124 L320 136 V180 H0Z" fill="#1e1b4b"/>
  <path d="M0 180 V164 C60 156 110 170 160 162 C220 152 270 170 320 160 V180Z" fill="#0f0b2e"/>
</svg>
